<?xml version="1.0" encoding="utf-8"?>
<!-- Generator: Adobe Illustrator 16.0.0, SVG Export Plug-In . SVG Version: 6.00 Build 0)  -->
<!DOCTYPE svg PUBLIC "-//W3C//DTD SVG 1.1//EN" "http://www.w3.org/Graphics/SVG/1.1/DTD/svg11.dtd">
<svg version="1.1" id="圖層_1" xmlns="http://www.w3.org/2000/svg" xmlns:xlink="http://www.w3.org/1999/xlink" x="0px" y="0px"
	 width="182px" height="37px" viewBox="0 0 182 37" enable-background="new 0 0 182 37" xml:space="preserve">
<g>
	<g>
		<path fill="#8B6E4A" d="M49.599,11.304c-1.283,3.23-3.504,6.765-6.018,8.404v-2.896c1.82-1.572,3.515-4.46,4.445-7.319h1.778
			h0.656h4.505c1.246,0,2.393,0.556,2.982,1.732c1.388,2.767,2.797,5.321,3.961,7.431h-2.387c-1.254-2.161-2.257-4.311-3.452-6.424
			c-0.376-0.664-1.017-0.928-1.65-0.928h-3.959H49.599"/>
		<path fill="#8B6E4A" d="M53.261,16.117l-5.42,7.217c-0.238,0.376-0.086,0.636,0.252,0.636H57.3
			c0.547,0.028,0.471-0.386,0.365-0.584l-1.972-3.295h2.262l2.193,3.696c0.485,0.802,0.026,2.012-1.018,2.012H46.224
			c-0.636,0-1.052-0.123-1.398-0.816c-0.213-0.426-0.033-1.202,0.294-1.607l5.573-7.258H53.261z"/>
	</g>
	<g>
		<g>
			<path fill="#8B6E4A" d="M86.611,35.388v-7.877h1.702v7.877H86.611z"/>
			<path fill="#8B6E4A" d="M94.929,35.388h-1.615v-2.911c0-0.615-0.034-1.014-0.104-1.195c-0.068-0.182-0.181-0.321-0.336-0.422
				c-0.156-0.1-0.342-0.151-0.56-0.151c-0.281,0-0.532,0.073-0.754,0.216c-0.224,0.144-0.375,0.332-0.457,0.569
				c-0.083,0.236-0.124,0.674-0.124,1.311v2.584h-1.617v-5.704h1.502v0.837c0.534-0.646,1.203-0.967,2.012-0.967
				c0.356,0,0.682,0.06,0.979,0.181c0.295,0.119,0.518,0.273,0.671,0.459c0.15,0.185,0.255,0.396,0.314,0.633
				s0.089,0.576,0.089,1.017V35.388z"/>
			<path fill="#8B6E4A" d="M95.529,33.76l1.621-0.231c0.069,0.295,0.209,0.518,0.418,0.67c0.213,0.152,0.508,0.229,0.887,0.229
				c0.418,0,0.733-0.071,0.942-0.216c0.142-0.1,0.213-0.233,0.213-0.401c0-0.115-0.038-0.21-0.114-0.285
				c-0.08-0.071-0.261-0.138-0.54-0.198c-1.303-0.27-2.13-0.516-2.479-0.736c-0.482-0.309-0.726-0.736-0.726-1.284
				c0-0.495,0.21-0.911,0.628-1.248c0.417-0.336,1.065-0.504,1.943-0.504c0.836,0,1.457,0.127,1.863,0.382
				c0.405,0.254,0.686,0.63,0.84,1.127l-1.524,0.265c-0.065-0.222-0.189-0.395-0.371-0.512s-0.442-0.178-0.779-0.178
				c-0.426,0-0.729,0.057-0.914,0.168c-0.121,0.079-0.185,0.18-0.185,0.307c0,0.106,0.055,0.199,0.161,0.273
				c0.146,0.101,0.649,0.241,1.51,0.425c0.861,0.183,1.462,0.406,1.803,0.672c0.337,0.268,0.506,0.642,0.506,1.122
				c0,0.522-0.234,0.974-0.701,1.349c-0.467,0.377-1.159,0.564-2.076,0.564c-0.831,0-1.49-0.158-1.976-0.473
				C95.996,34.73,95.679,34.301,95.529,33.76z"/>
			<path fill="#8B6E4A" d="M105.892,35.388v-0.853c-0.224,0.304-0.515,0.543-0.877,0.719s-0.744,0.264-1.147,0.264
				c-0.41,0-0.777-0.084-1.104-0.252c-0.325-0.169-0.562-0.405-0.706-0.71c-0.146-0.305-0.218-0.725-0.218-1.263v-3.609h1.614v2.621
				c0,0.803,0.03,1.294,0.088,1.475c0.062,0.18,0.169,0.324,0.325,0.43c0.158,0.106,0.357,0.157,0.599,0.157
				c0.275,0,0.522-0.069,0.742-0.211c0.219-0.142,0.368-0.316,0.449-0.526c0.079-0.209,0.12-0.723,0.12-1.539v-2.406h1.615v5.704
				H105.892z"/>
			<path fill="#8B6E4A" d="M110.1,35.388h-1.616v-5.704h1.501v0.811c0.258-0.384,0.488-0.636,0.692-0.759
				c0.206-0.12,0.438-0.182,0.698-0.182c0.369,0,0.724,0.095,1.065,0.285l-0.501,1.316c-0.271-0.165-0.524-0.247-0.759-0.247
				c-0.227,0-0.417,0.058-0.575,0.174c-0.156,0.116-0.28,0.327-0.371,0.631c-0.09,0.306-0.135,0.942-0.135,1.914V35.388z"/>
			<path fill="#8B6E4A" d="M114.3,31.423l-1.465-0.247c0.164-0.551,0.448-0.959,0.851-1.225c0.403-0.266,1.001-0.397,1.794-0.397
				c0.721,0,1.257,0.08,1.609,0.239c0.354,0.159,0.602,0.361,0.745,0.606c0.143,0.245,0.216,0.696,0.216,1.352l-0.017,1.762
				c0,0.503,0.025,0.873,0.077,1.11c0.051,0.237,0.149,0.493,0.289,0.765h-1.597c-0.043-0.099-0.095-0.248-0.156-0.444
				c-0.026-0.091-0.046-0.148-0.058-0.178c-0.275,0.25-0.57,0.439-0.886,0.564c-0.313,0.125-0.648,0.188-1.006,0.188
				c-0.628,0-1.124-0.159-1.486-0.479c-0.362-0.318-0.542-0.721-0.542-1.208c0-0.322,0.081-0.611,0.246-0.862
				c0.165-0.254,0.396-0.446,0.692-0.581c0.296-0.134,0.726-0.252,1.287-0.353c0.754-0.132,1.277-0.255,1.567-0.369v-0.151
				c0-0.29-0.076-0.497-0.229-0.62c-0.154-0.125-0.443-0.187-0.868-0.187c-0.289,0-0.513,0.054-0.674,0.159
				C114.529,30.973,114.399,31.157,114.3,31.423z M116.462,32.648c-0.207,0.064-0.534,0.142-0.982,0.23
				c-0.447,0.09-0.742,0.178-0.88,0.263c-0.21,0.141-0.316,0.318-0.316,0.532c0,0.212,0.084,0.395,0.253,0.548
				c0.168,0.154,0.383,0.232,0.646,0.232c0.29,0,0.568-0.09,0.833-0.27c0.196-0.137,0.323-0.303,0.385-0.5
				c0.043-0.129,0.062-0.374,0.062-0.736V32.648z"/>
			<path fill="#8B6E4A" d="M124.551,35.388h-1.615v-2.911c0-0.615-0.034-1.014-0.104-1.195s-0.181-0.321-0.336-0.422
				c-0.156-0.1-0.343-0.151-0.562-0.151c-0.279,0-0.53,0.073-0.753,0.216c-0.223,0.144-0.374,0.332-0.457,0.569
				c-0.081,0.236-0.123,0.674-0.123,1.311v2.584h-1.615v-5.704h1.5v0.837c0.532-0.646,1.203-0.967,2.012-0.967
				c0.356,0,0.683,0.06,0.978,0.181c0.295,0.119,0.518,0.273,0.671,0.459c0.151,0.185,0.255,0.396,0.316,0.633
				c0.059,0.236,0.088,0.576,0.088,1.017V35.388z"/>
			<path fill="#8B6E4A" d="M130.803,31.37l-1.592,0.269c-0.056-0.298-0.177-0.521-0.366-0.672c-0.189-0.151-0.436-0.226-0.739-0.226
				c-0.403,0-0.721,0.129-0.963,0.389c-0.239,0.261-0.358,0.694-0.358,1.305c0,0.675,0.121,1.154,0.365,1.433
				c0.241,0.279,0.57,0.42,0.98,0.42c0.306,0,0.558-0.083,0.752-0.245c0.196-0.162,0.335-0.442,0.414-0.841l1.587,0.253
				c-0.165,0.681-0.479,1.195-0.948,1.542c-0.468,0.348-1.094,0.521-1.881,0.521c-0.893,0-1.605-0.264-2.135-0.79
				c-0.531-0.526-0.797-1.257-0.797-2.188c0-0.942,0.267-1.675,0.799-2.199c0.533-0.526,1.254-0.787,2.162-0.787
				c0.744,0,1.334,0.149,1.774,0.448C130.297,30.302,130.611,30.758,130.803,31.37z"/>
			<path fill="#8B6E4A" d="M135.391,33.572l1.61,0.253c-0.208,0.551-0.533,0.971-0.979,1.259c-0.446,0.289-1.005,0.434-1.676,0.434
				c-1.062,0-1.848-0.324-2.357-0.974c-0.403-0.518-0.604-1.174-0.604-1.966c0-0.945,0.266-1.685,0.794-2.222
				c0.53-0.534,1.199-0.803,2.007-0.803c0.908,0,1.625,0.279,2.15,0.841c0.524,0.561,0.775,1.419,0.752,2.576h-4.046
				c0.011,0.449,0.14,0.796,0.39,1.045c0.249,0.25,0.56,0.373,0.932,0.373c0.254,0,0.467-0.063,0.639-0.192
				C135.174,34.066,135.304,33.859,135.391,33.572z M135.483,32.047c-0.013-0.438-0.133-0.769-0.36-0.997
				c-0.231-0.228-0.513-0.342-0.842-0.342c-0.352,0-0.643,0.121-0.873,0.361s-0.344,0.565-0.339,0.978H135.483z"/>
			<path fill="#8B6E4A" d="M140.633,27.511h3.369c0.667,0,1.162,0.026,1.49,0.079c0.329,0.052,0.622,0.161,0.88,0.324
				c0.261,0.165,0.475,0.386,0.647,0.658c0.173,0.274,0.26,0.582,0.26,0.921c0,0.37-0.107,0.708-0.319,1.017
				c-0.214,0.309-0.501,0.539-0.863,0.693c0.511,0.139,0.906,0.378,1.183,0.715c0.275,0.336,0.414,0.731,0.414,1.188
				c0,0.357-0.09,0.707-0.268,1.044c-0.18,0.338-0.423,0.609-0.731,0.812c-0.308,0.202-0.688,0.327-1.141,0.373
				c-0.283,0.028-0.969,0.046-2.052,0.053h-2.869V27.511z M142.333,28.822v1.821h1.116c0.663,0,1.075-0.009,1.236-0.026
				c0.291-0.031,0.521-0.126,0.687-0.282c0.167-0.155,0.25-0.361,0.25-0.615c0-0.244-0.072-0.44-0.216-0.594
				c-0.143-0.151-0.356-0.244-0.642-0.275c-0.167-0.02-0.652-0.028-1.453-0.028H142.333z M142.333,31.955v2.106h1.576
				c0.612,0,1.003-0.017,1.167-0.049c0.254-0.043,0.459-0.148,0.618-0.314s0.24-0.389,0.24-0.668c0-0.237-0.063-0.438-0.186-0.603
				c-0.123-0.165-0.301-0.285-0.532-0.36c-0.232-0.074-0.736-0.112-1.508-0.112H142.333z"/>
			<path fill="#8B6E4A" d="M150.343,35.388h-1.616v-5.704h1.5v0.811c0.257-0.384,0.487-0.636,0.693-0.759
				c0.205-0.12,0.438-0.182,0.698-0.182c0.367,0,0.722,0.095,1.064,0.285l-0.502,1.316c-0.271-0.165-0.525-0.247-0.758-0.247
				c-0.227,0-0.418,0.058-0.576,0.174c-0.154,0.116-0.279,0.327-0.37,0.631c-0.09,0.306-0.134,0.942-0.134,1.914V35.388z"/>
			<path fill="#8B6E4A" d="M152.683,32.454c0-0.5,0.132-0.986,0.396-1.456c0.263-0.468,0.638-0.826,1.123-1.074
				c0.485-0.247,1.027-0.37,1.624-0.37c0.925,0,1.683,0.279,2.271,0.841c0.591,0.561,0.885,1.269,0.885,2.124
				c0,0.864-0.297,1.579-0.893,2.147c-0.595,0.568-1.347,0.852-2.252,0.852c-0.559,0-1.094-0.118-1.6-0.354
				c-0.509-0.237-0.896-0.583-1.159-1.039C152.814,33.666,152.683,33.109,152.683,32.454z M154.336,32.535
				c0,0.567,0.146,0.999,0.432,1.301c0.289,0.301,0.643,0.451,1.064,0.451s0.776-0.15,1.062-0.451
				c0.286-0.302,0.428-0.738,0.428-1.312c0-0.56-0.142-0.988-0.428-1.288c-0.285-0.304-0.64-0.452-1.062-0.452
				s-0.775,0.148-1.064,0.452C154.482,31.536,154.336,31.969,154.336,32.535z"/>
			<path fill="#8B6E4A" d="M159.868,35.388v-7.877h1.615v4.181l1.893-2.008h1.99l-2.088,2.084l2.237,3.62h-1.742l-1.535-2.562
				l-0.755,0.736v1.826H159.868z"/>
			<path fill="#8B6E4A" d="M169.522,33.572l1.609,0.253c-0.207,0.551-0.533,0.971-0.979,1.259c-0.447,0.289-1.005,0.434-1.677,0.434
				c-1.062,0-1.848-0.324-2.356-0.974c-0.401-0.518-0.604-1.174-0.604-1.966c0-0.945,0.264-1.685,0.794-2.222
				c0.527-0.534,1.196-0.803,2.008-0.803c0.906,0,1.622,0.279,2.148,0.841c0.524,0.561,0.775,1.419,0.753,2.576h-4.048
				c0.012,0.449,0.142,0.796,0.392,1.045c0.248,0.25,0.559,0.373,0.93,0.373c0.255,0,0.468-0.063,0.64-0.192
				C169.305,34.066,169.435,33.859,169.522,33.572z M169.614,32.047c-0.011-0.438-0.133-0.769-0.362-0.997
				c-0.229-0.228-0.51-0.342-0.838-0.342c-0.354,0-0.646,0.121-0.875,0.361c-0.23,0.24-0.344,0.565-0.339,0.978H169.614z"/>
			<path fill="#8B6E4A" d="M173.641,35.388h-1.616v-5.704h1.501v0.811c0.257-0.384,0.487-0.636,0.692-0.759
				c0.205-0.12,0.438-0.182,0.698-0.182c0.369,0,0.723,0.095,1.062,0.285l-0.499,1.316c-0.271-0.165-0.525-0.247-0.759-0.247
				c-0.226,0-0.417,0.058-0.575,0.174c-0.156,0.116-0.28,0.327-0.369,0.631c-0.092,0.306-0.136,0.942-0.136,1.914V35.388z"/>
			<path fill="#8B6E4A" d="M175.859,33.76l1.622-0.231c0.067,0.295,0.208,0.518,0.419,0.67c0.212,0.152,0.506,0.229,0.886,0.229
				c0.417,0,0.732-0.071,0.941-0.216c0.145-0.1,0.215-0.233,0.215-0.401c0-0.115-0.038-0.21-0.116-0.285
				c-0.08-0.071-0.26-0.138-0.539-0.198c-1.304-0.27-2.131-0.516-2.479-0.736c-0.481-0.309-0.722-0.736-0.722-1.284
				c0-0.495,0.206-0.911,0.625-1.248c0.419-0.336,1.065-0.504,1.944-0.504c0.835,0,1.455,0.127,1.862,0.382
				c0.406,0.254,0.685,0.63,0.84,1.127l-1.523,0.265c-0.066-0.222-0.189-0.395-0.371-0.512c-0.184-0.117-0.443-0.178-0.78-0.178
				c-0.425,0-0.73,0.057-0.914,0.168c-0.123,0.079-0.184,0.18-0.184,0.307c0,0.106,0.053,0.199,0.161,0.273
				c0.145,0.101,0.648,0.241,1.508,0.425c0.862,0.183,1.46,0.406,1.804,0.672c0.338,0.268,0.505,0.642,0.505,1.122
				c0,0.522-0.233,0.974-0.702,1.349c-0.465,0.377-1.158,0.564-2.074,0.564c-0.831,0-1.489-0.158-1.975-0.473
				C176.327,34.73,176.009,34.301,175.859,33.76z"/>
		</g>
		<g>
			<path fill="#8B6E4A" d="M48.128,32.462v-1.339h3.7v3.164c-0.361,0.325-0.88,0.611-1.563,0.859
				c-0.681,0.247-1.372,0.371-2.071,0.371c-0.89,0-1.664-0.175-2.326-0.523c-0.661-0.349-1.157-0.848-1.489-1.496
				c-0.333-0.646-0.499-1.354-0.499-2.116c0-0.825,0.186-1.56,0.557-2.203s0.914-1.136,1.629-1.479
				c0.546-0.265,1.223-0.396,2.035-0.396c1.055,0,1.88,0.206,2.474,0.62c0.593,0.414,0.974,0.985,1.146,1.716l-1.705,0.298
				c-0.121-0.39-0.345-0.698-0.676-0.924c-0.33-0.227-0.742-0.339-1.238-0.339c-0.749,0-1.346,0.222-1.789,0.666
				c-0.441,0.444-0.663,1.104-0.663,1.979c0,0.941,0.226,1.649,0.673,2.12c0.449,0.472,1.034,0.706,1.763,0.706
				c0.359,0,0.72-0.064,1.082-0.196c0.36-0.134,0.671-0.293,0.931-0.481v-1.006H48.128z"/>
			<path fill="#8B6E4A" d="M60.215,35.383v-7.943h1.628v7.943H60.215z"/>
			<path fill="#8B6E4A" d="M74.04,33.551l1.623,0.255c-0.209,0.556-0.539,0.979-0.988,1.271c-0.45,0.291-1.014,0.437-1.691,0.437
				c-1.069,0-1.863-0.328-2.377-0.982c-0.405-0.521-0.607-1.185-0.607-1.982c0-0.953,0.267-1.7,0.8-2.24
				c0.533-0.541,1.208-0.81,2.023-0.81c0.915,0,1.639,0.282,2.169,0.849c0.529,0.564,0.783,1.43,0.76,2.597h-4.083
				c0.012,0.451,0.144,0.803,0.395,1.055c0.25,0.252,0.564,0.376,0.94,0.376c0.254,0,0.469-0.065,0.643-0.195
				C73.819,34.05,73.951,33.84,74.04,33.551z M74.133,32.013c-0.012-0.44-0.133-0.776-0.365-1.005
				c-0.231-0.23-0.515-0.345-0.847-0.345c-0.354,0-0.649,0.12-0.882,0.363c-0.231,0.242-0.346,0.569-0.341,0.986H74.133z"/>
			<path fill="#8B6E4A" d="M82.532,35.383h-1.629v-2.938c0-0.621-0.035-1.023-0.104-1.206c-0.069-0.182-0.183-0.323-0.339-0.425
				c-0.157-0.101-0.345-0.151-0.564-0.151c-0.283,0-0.538,0.072-0.761,0.217c-0.224,0.145-0.378,0.336-0.461,0.574
				c-0.082,0.238-0.125,0.679-0.125,1.322v2.606h-1.628v-5.754h1.513v0.845c0.536-0.649,1.215-0.976,2.028-0.976
				c0.359,0,0.688,0.061,0.986,0.182c0.298,0.12,0.522,0.275,0.676,0.464c0.153,0.187,0.258,0.399,0.318,0.638
				c0.06,0.239,0.09,0.58,0.09,1.024V35.383z"/>
			<path fill="#8B6E4A" d="M55.99,35.518c1.709,0,3.096-1.387,3.096-3.096s-1.387-3.096-3.096-3.096s-3.097,1.387-3.097,3.096
				S54.281,35.518,55.99,35.518z M54.783,32.259l1.043-1.043c0.091-0.09,0.237-0.09,0.326,0l1.045,1.043
				c0.092,0.091,0.092,0.238,0.001,0.327l-1.044,1.043c-0.09,0.091-0.237,0.091-0.328,0l-1.043-1.045
				C54.692,32.497,54.692,32.35,54.783,32.259z"/>
			<path fill="#8B6E4A" d="M68.868,35.387h-1.514v-0.845c-0.251,0.329-0.548,0.574-0.891,0.734c-0.342,0.16-0.687,0.241-1.034,0.241
				c-0.708,0-1.313-0.267-1.818-0.8c-0.503-0.532-0.757-1.275-0.757-2.229c0-0.977,0.246-1.717,0.736-2.226
				c0.491-0.506,1.112-0.761,1.861-0.761c0.688,0,1.282,0.269,1.787,0.803v-2.861h1.629V35.387z M64.519,32.387
				c0,0.613,0.091,1.058,0.272,1.332c0.264,0.396,0.631,0.597,1.103,0.597c0.375,0,0.693-0.148,0.957-0.448
				c0.263-0.297,0.394-0.743,0.394-1.335c0-0.662-0.129-1.137-0.382-1.429c-0.256-0.289-0.582-0.436-0.981-0.436
				c-0.385,0-0.71,0.145-0.971,0.432C64.649,31.386,64.519,31.815,64.519,32.387z"/>
		</g>
	</g>
	<g>
		<path fill="#8B6E4A" d="M20.952,8.514c1.896,0,3.433-1.538,3.433-3.435s-1.537-3.435-3.433-3.435
			c-1.897,0-3.436,1.538-3.436,3.435S19.055,8.514,20.952,8.514z M19.612,4.898l1.157-1.159c0.103-0.099,0.265-0.099,0.362,0
			l1.159,1.159c0.102,0.101,0.102,0.263,0.002,0.362l-1.159,1.157c-0.099,0.101-0.262,0.101-0.364,0l-1.157-1.159
			C19.512,5.161,19.512,4.999,19.612,4.898z"/>
		<rect x="4.854" y="33.131" fill="#8B6E4A" width="32.192" height="2.15"/>
		<path fill="#8B6E4A" d="M20.97,11.015c-2.06-2.15-4.867-3.474-7.962-3.474c-6.319,0-11.441,5.517-11.441,12.321
			c0,3.478,1.337,6.618,3.487,8.858l-0.199,0.005v2.819h32.192v-2.819l-0.179,0.014c2.161-2.241,3.506-5.39,3.506-8.877
			c0-6.805-5.123-12.321-11.441-12.321C25.838,7.541,23.029,8.864,20.97,11.015 M20.967,18.597c0.561-4.277,3.92-7.574,7.966-7.574
			c4.438,0,8.049,3.967,8.049,8.84c0,4.875-3.611,8.841-8.049,8.841c-2.206,0-4.208-0.979-5.664-2.564h0.001
			c0.183-0.186,0.339-0.374,0.467-0.567c0.206-0.327,0.36-0.679,0.464-1.053h3.165v-1.649h-2.997h-6.836h-2.996v1.649H17.7
			c0.105,0.374,0.26,0.726,0.464,1.053c0.133,0.2,0.296,0.396,0.488,0.589l-0.001-0.001c-1.453,1.572-3.447,2.544-5.644,2.544
			c-4.438,0-8.05-3.966-8.05-8.841c0-4.873,3.611-8.84,8.05-8.84c4.044,0,7.402,3.295,7.965,7.569"/>
	</g>
	<g>
		<path fill="#8B6E4A" d="M84.16,17.334v-2.237c1.528-1.313,2.686-3.155,3.47-5.521h1.943c-0.372,1.257-0.848,2.384-1.405,3.381
			v12.838h-1.984V15.661C85.564,16.3,84.882,16.862,84.16,17.334z"/>
		<path fill="#8B6E4A" d="M94.448,18.349v-1.315h1.984v1.315h5.187v1.689h-2.211c0.579,1.616,1.362,2.818,2.376,3.645v2.199
			c-1.859-1.203-3.265-3.138-4.257-5.844h-1.095v5.757h-1.984v-5.757h-1.032c-0.538,2.572-1.962,4.509-4.257,5.824v-2.011
			c1.282-0.995,2.087-2.273,2.438-3.813h-2.293v-1.689H94.448z"/>
		<path fill="#8B6E4A" d="M101.287,13.037v3.555h-3.12l-7.975-0.021V9.822h7.502h1.61c0,0,1.982,0.078,1.982,2.291
			C101.287,14.328,101.287,13.037,101.287,13.037z M99.305,12.376c0-0.847-0.933-0.873-0.933-0.873h-0.72h-5.579v3.308l5.724,0.021
			h1.508V13.07C99.305,13.07,99.305,13.222,99.305,12.376z"/>
	</g>
	<g>
		<path fill="#8B6E4A" d="M77.66,24.239c-0.457-0.004-0.914-0.023-1.37-0.06l-0.023,1.598c0.536,0.071,1.33,0.106,2.377,0.106
			c0,0,2.348,0.231,2.34-2.653c0,0,0-1.056,0-2.724c0-1.666-2.195-1.58-2.195-1.58h-1.361c0.042-0.378,0.062-0.813,0.062-1.267
			h-1.753c0,0.435-0.041,0.851-0.103,1.267h-2.103c0.763-0.644,1.441-1.399,2.02-2.27h3.093c0.928,1.646,2.145,2.855,3.649,3.611
			V18.34c-0.618-0.472-1.176-1.038-1.628-1.683h1.276v-1.589h-2.226h-3.299c0.205-0.452,0.412-0.944,0.577-1.492h2.145h2.536v-1.569
			h-1.057l0.277-1.104c0,0,0.216-0.942-0.821-0.918h-0.729c-0.165,0.662-0.351,1.343-0.578,2.022h-1.38
			c0.164-0.736,0.268-1.531,0.35-2.4h-1.834c-0.083,0.831-0.186,1.644-0.352,2.4h-0.927c-0.083-0.662-0.166-1.342-0.269-2.04
			c-0.107,0-0.214-0.002-0.321,0c-0.328,0.002-0.648-0.021-0.939,0.149c-0.069,0.04-0.136,0.094-0.184,0.154
			c-0.106,0.129-0.146,0.271-0.157,0.429c-0.013,0.201,0.021,0.4,0.05,0.599c0.028,0.192,0.042,0.386,0.061,0.58
			c0.004,0.042,0.006,0.085,0.011,0.129h-0.829v1.569h3.053c-0.187,0.53-0.393,1.04-0.641,1.492h-2.639v1.589h1.588
			c-0.475,0.605-1.033,1.135-1.649,1.589v1.891c0.413-0.228,0.825-0.491,1.237-0.794v1.153h2.267
			c-0.576,1.626-1.669,2.854-3.278,3.725v1.797c2.743-1.079,4.454-2.912,5.155-5.521h0.707c0.169,0,0.346,0.011,0.511,0.044
			c0.226,0.044,0.452,0.143,0.622,0.29c0.188,0.165,0.245,0.413,0.246,0.645c0.003,0.346,0.006,0.688,0.005,1.032
			c0,0.176-0.013,0.351,0,0.525c0.004,0.077,0.007,0.153,0,0.231c-0.006,0.047-0.009,0.105-0.016,0.165
			c-0.008,0.067-0.023,0.135-0.049,0.181c-0.194,0.339-0.544,0.55-0.953,0.611C78.052,24.245,77.866,24.24,77.66,24.239"/>
		<path fill="#8B6E4A" d="M71.201,18.188c0,2.539-0.021,4.366-0.062,5.502c0,1.423-0.64,2.153-1.897,2.211
			c-0.578-0.037-1.134-0.058-1.669-0.077v-1.634c0.433,0.057,0.865,0.076,1.319,0.076c0.288-0.038,0.453-0.25,0.493-0.616
			c0.021-1.038,0.043-2.02,0.063-2.961h-2.268c-0.083,2.615-0.197,4.251-0.402,5.213h-1.835c0.37-2.232,0.546-5.311,0.587-9.541
			V9.665h3.403h1.093c0,0,1.174-0.029,1.174,0.943C71.201,11.58,71.201,18.188,71.201,18.188z M69.47,19.051v-0.693
			c0-0.884-0.021-1.711-0.041-2.501h-2.146v0.521c-0.02,0.979-0.04,1.866-0.04,2.674H69.47z M69.47,14.258v-0.691
			c0-0.886-0.021-1.653-0.041-2.442h-2.146v0.519c-0.02,0.981-0.04,1.809-0.04,2.615H69.47z"/>
	</g>
	<path fill="#8B6E4A" d="M114.316,21.171v0.193c0,0.114,0,0.229,0,0.306c0.309,1.144,0.711,1.817,1.455,2.16v2.005
		c-0.932-0.439-1.582-1.073-2.161-2.047c-0.622,0.878-1.575,1.565-2.86,2.08v-1.871c1.16-0.553,1.742-1.411,1.763-2.575v-0.24
		L114.316,21.171z"/>
	<path fill="#8B6E4A" d="M119.932,21.171v0.193c0,0.114,0,0.229,0,0.306c0.311,1.144,0.83,1.891,1.574,2.232v2.005
		c-0.933-0.438-1.698-1.146-2.278-2.119c-0.623,0.878-1.576,1.565-2.86,2.08v-1.871c1.161-0.553,1.74-1.411,1.761-2.575v-0.24
		L119.932,21.171z"/>
	<path fill="#8B6E4A" d="M110.198,11.163c0,0.807-0.394,2.117-1.162,4.114c0.913,2.649,1.39,4.264,1.39,6.297
		c0,1.132-0.54,1.729-1.595,1.767h-1.805v-1.557h1.182c0.353,0,0.538-0.189,0.538-0.613c0-1.075-0.497-2.591-1.45-5.952
		c0.332-1.266,0.685-2.424,1.037-3.689c0-0.192-0.125-0.288-0.374-0.288h-1.512v14.554h-1.823V9.704h3.916
		C109.638,9.858,110.198,10.338,110.198,11.163z"/>
	<path fill="#8B6E4A" d="M119.783,10.984c0.947,1.252,1.528,2.581,2.235,4.185h-1.949c-0.125-0.345-0.242-0.688-0.388-1.013h-6.949
		c-0.187,0.324-0.373,0.631-0.559,0.897h-2.136c1.035-1.565,1.904-3.286,2.734-5.349h4.668
		C118.621,9.771,119.221,10.242,119.783,10.984z M118.832,12.572c-0.167-0.267-0.386-0.525-0.599-0.77
		c-0.062-0.07-0.421-0.509-0.979-0.551h-3.011c-0.228,0.497-0.411,0.861-0.641,1.32H118.832z"/>
	<path fill="#8B6E4A" d="M115.846,18.239v2.364h-2.229h-2.823v-4.75h2.888h0.635c0,0,1.529-0.069,1.529,1.329s0,0.997,0,0.997
		V18.239z M114.353,19.229v-2.001h-2.066v2.001H114.353z"/>
	<path fill="#8B6E4A" d="M121.462,18.239v2.364h-2.229h-2.82v-4.75h2.886h0.636c0,0,1.528-0.069,1.528,1.329s0,0.997,0,0.997V18.239
		z M119.97,19.229v-2.001h-2.065v2.001H119.97z"/>
	<path fill="#8B6E4A" d="M130.166,9.588l-3.554,4.471h1.082l1.891-2.319h2.263l-4.508,5.487h1.766c0.333,0,0.499-0.206,0.499-0.659
		v-1.302h1.725v1.961c0,1.02-0.623,1.548-1.829,1.604h-0.395v6.964h-1.828v-6.964h-1.163c-0.873,0-1.29-0.321-1.29-0.982
		c0-0.188,0.168-0.47,0.521-0.885l1.082-1.339h-1.249c-0.581-0.076-0.852-0.435-0.852-1.038c0-0.188,0.083-0.413,0.291-0.659
		l3.366-4.34H130.166z"/>
	<path fill="#8B6E4A" d="M135.256,12.034c-0.935,2.018-1.393,3.132-1.393,3.361c0,0.423,0.458,1.498,1.393,3.225h-2.016
		c-0.81-1.783-1.204-2.821-1.204-3.11c0-0.229,0.415-1.382,1.246-3.476H135.256z"/>
	<rect x="132.284" y="9.748" fill="#8B6E4A" width="9.436" height="1.659"/>
	<polygon fill="#8B6E4A" points="141.553,19.383 141.553,21.04 137.896,21.04 137.896,23.944 141.803,23.944 141.803,25.62 
		132.328,25.62 132.328,23.944 135.941,23.944 135.941,21.04 132.575,21.04 132.575,19.383 	"/>
	<path fill="#8B6E4A" d="M138.456,12.054c-0.976,1.839-1.453,2.867-1.453,3.081c0,0.444,0.519,1.606,1.599,3.485h-2.016
		c-0.955-1.936-1.435-3.078-1.435-3.388c0-0.194,0.436-1.261,1.33-3.179H138.456z"/>
	<path fill="#8B6E4A" d="M141.615,12.054c-1.019,1.92-1.517,2.996-1.517,3.227c0,0.422,0.603,1.536,1.808,3.34h-2.017
		c-1.102-1.862-1.642-2.938-1.642-3.243c0-0.211,0.437-1.325,1.33-3.323H141.615z"/>
	<polygon fill="#8B6E4A" points="131.262,24.782 129.525,24.782 129.716,19.752 131.07,19.752 	"/>
	<polygon fill="#8B6E4A" points="126.649,24.818 124.914,24.818 125.103,19.79 126.459,19.79 	"/>
	<g>
		<path fill="#8B6E4A" d="M150.548,9.596l-3.997,4.24h1.746l2.083-2.14h2.357l-5.534,5.609h2.589c0.335,0,0.504-0.206,0.504-0.618
			v-1.632h1.789v2.25c0,0.976-0.652,1.501-1.915,1.559h-0.821v6.931h-1.852v-6.931h-1.558c-0.883,0-1.324-0.319-1.324-0.958
			c0-0.188,0.168-0.469,0.525-0.844l1.662-1.707h-1.767c-0.632-0.075-0.928-0.414-0.928-0.995c0-0.188,0.105-0.412,0.317-0.657
			l3.786-4.107H150.548z"/>
		<polygon fill="#8B6E4A" points="151.649,24.749 149.893,24.749 150.083,19.913 151.458,19.913 		"/>
		<polygon fill="#8B6E4A" points="146.903,24.785 145.146,24.785 145.338,19.949 146.712,19.949 		"/>
		<path fill="#8B6E4A" d="M161.606,23.802c-1.296,0.106-2.596,0.154-4.129,0.154c-1.733-0.038-2.6-0.897-2.6-2.031v-4.2l4.227,0.019
			l2.502,0.021c0,0,0-3.81,0-5.945c0-2.138-2.849-2.224-2.849-2.224h-5.809v1.662h5.331c0,0,1.409,0.003,1.409,1.025
			s0,3.723,0,3.723h-0.932h-5.874v5.725c0,2.384,1.367,3.89,4.118,3.967c2.244,0,3.703-0.014,4.604-0.029V23.802z"/>
	</g>
	<path fill="#8B6E4A" d="M173.662,13.81c0-0.057,0.021-0.115,0.021-0.192v-3.119V9.969V9.606h-2.087v0.892h0.013l0.018,3.119
		c-0.13,2.484-0.88,4.625-2.251,6.419c-1.284,1.758-3.127,2.622-5.526,3.597v1.987c2.998-0.975,5.333-1.973,6.984-4.055
		c0.985-1.184,1.714-2.561,2.186-4.127c1.735,3.897,4.584,6.394,8.548,8.457v-2.293C177.175,21.005,174.539,18.068,173.662,13.81z"
		/>
</g>
</svg>
