<svg width="448" height="448" viewBox="0 0 448 448" fill="none" xmlns="http://www.w3.org/2000/svg">
<path d="M272.1 172.2V243.3C272.1 245.1 270.7 246.5 268.9 246.5H257.5C256.4 246.5 255.4 245.9 254.9 245.2L222.3 201.2V243.4C222.3 245.2 220.9 246.6 219.1 246.6H207.7C205.9 246.6 204.5 245.2 204.5 243.4V172.3C204.5 170.5 205.9 169.1 207.7 169.1H219C220 169.1 221.1 169.6 221.6 170.5L254.2 214.5V172.3C254.2 170.5 255.6 169.1 257.4 169.1H268.8C270.6 169 272.1 170.5 272.1 172.2V172.2ZM190.1 169H178.7C176.9 169 175.5 170.4 175.5 172.2V243.3C175.5 245.1 176.9 246.5 178.7 246.5H190.1C191.9 246.5 193.3 245.1 193.3 243.3V172.2C193.3 170.5 191.9 169 190.1 169V169ZM162.6 228.6H131.5V172.2C131.5 170.4 130.1 169 128.3 169H116.9C115.1 169 113.7 170.4 113.7 172.2V243.3C113.7 244.2 114 244.9 114.6 245.5C115.2 246 115.9 246.4 116.8 246.4H162.5C164.3 246.4 165.7 245 165.7 243.2V231.8C165.7 230.1 164.3 228.6 162.6 228.6V228.6ZM332.1 169H286.4C284.7 169 283.2 170.4 283.2 172.2V243.3C283.2 245 284.6 246.5 286.4 246.5H332.1C333.9 246.5 335.3 245.1 335.3 243.3V231.9C335.3 230.1 333.9 228.7 332.1 228.7H301V216.7H332.1C333.9 216.7 335.3 215.3 335.3 213.5V202C335.3 200.2 333.9 198.8 332.1 198.8H301V186.8H332.1C333.9 186.8 335.3 185.4 335.3 183.6V172.2C335.2 170.5 333.8 169 332.1 169V169ZM448 81.7002V367C447.9 411.8 411.2 448.1 366.3 448H81.0002C36.2002 447.9 -0.0997939 411.1 0.000206116 366.3V81.0002C0.100206 36.2002 36.9002 -0.0997939 81.7002 0.000206116H367C411.8 0.100206 448.1 36.8002 448 81.7002ZM386.4 204.3C386.4 131.3 313.2 71.9002 223.3 71.9002C133.4 71.9002 60.2002 131.3 60.2002 204.3C60.2002 269.7 118.2 324.5 196.6 334.9C215.7 339 213.5 346 209.2 371.7C208.5 375.8 205.9 387.8 223.3 380.5C240.7 373.2 317.2 325.2 351.5 285.8C375.1 259.8 386.4 233.5 386.4 204.3Z" fill="#06C755"/>
</svg>
