<svg version="1.1" width="300" height="506.1" viewBox="1.2 4.6 300 506.1" xmlns="http://www.w3.org/2000/svg" xmlns:xlink="http://www.w3.org/1999/xlink" fill="#FBD75A" overflow="hidden"><g id="change1_1"><path d=" M 189.4 27.2 C 191.7 54.6 191.2 82.7 197.1 109.4 C 205.4 147 225.9 179.6 251.9 207.8 C 259.3 215.8 272 219.1 282.8 223.5 C 290.6 226.7 299.2 228.1 300.2 238.6 C 301.2 249.1 294 252.8 285.8 256.1 C 260.9 266.1 242.8 284.1 229.2 306.6 C 199.2 356.1 178.4 409.3 165.8 465.7 C 163.8 474.5 163.2 483.7 162 492.7 C 160.7 502.7 157 510.7 145.4 510.5 C 133.8 510.3 130.8 502 129 492.3 C 121.4 451.9 116.3 410.9 104.8 371.6 C 95.6 340.1 79.4 310.5 64.9 280.7 C 56.5 263.4 40.6 253.1 24.2 243.6 C 2.5 231.2 1.2 217.7 21.3 202.5 C 54.2 177.6 86.4 152.4 114.1 121.4 C 134.2 99 147.3 73.5 157.7 45.9 C 161.6 35.5 165 24.9 170.3 15.2 C 172.8 10.6 179.2 8.1 183.8 4.6 C 186.7 10 189.8 15.3 192.3 20.9 C 193 22.5 192.2 24.8 192.1 26.8 L 189.4 27.2 Z M 147.7 414.6 C 172.5 351.7 193.2 289.7 244.4 246.2 C 201.8 206.5 175.4 158.5 165.8 99.6 C 134.7 148.5 94.7 187.1 47.7 218.7 C 111.9 268.4 129.9 339.8 147.7 414.6 Z"/></g></svg>