<svg version="1.1" width="399.8" height="374.4" viewBox="15.5 5.7 399.8 374.4" xmlns="http://www.w3.org/2000/svg" xmlns:xlink="http://www.w3.org/1999/xlink" fill="#000000" overflow="hidden"><g id="change1_1"><path d=" M 77.7 350.8 C 78.6 350 79.4 349.2 78.5 350.1 C 76.9 345.7 74.6 342.4 74.9 339.3 C 75.4 334.8 76.9 330.4 79.2 326.5 C 85.3 315.7 91.6 305 98.4 294.5 C 102.2 289 106.4 283.7 111 278.9 C 111.8 278 114.3 278.8 114.4 277 C 117.8 273.1 121.5 269.4 124.6 265.3 C 128 261 130.8 256.2 133.9 251.7 C 140.8 241.9 147.6 232 154.8 222.5 C 160.3 215.2 159.8 213.4 151.9 208.6 C 139 200.7 126.7 192 113.9 184 C 102 176.5 89.4 170 77.8 162.1 C 62.6 151.8 48.1 140.6 33.6 129.4 C 32.1 128.2 32.7 124.3 32.3 120.9 L 25.7 122.8 C 22.8 118.5 19.5 114.6 17.4 110.1 C 16.1 107.4 15.5 103 16.8 100.9 C 18.5 98.4 22.6 96 25.6 96.1 C 30.8 96.2 35.9 96 38.6 103.8 C 40.2 108.4 48.3 111 53.7 114.1 C 73.8 125.7 94 136.9 114 148.5 C 123.4 153.9 132.6 159.7 141.5 166 C 144.9 168.5 146.8 173.1 150.1 175.6 L 159.8 184.2 L 167.2 182.6 L 167.2 168.6 L 166.6 169.1 C 164.8 162.9 162.3 156.7 161.4 150.3 C 159.8 138.9 159.2 127.3 158.1 115.7 C 156.8 101.3 155.2 86.9 154.3 72.5 C 153.2 55.2 152.5 37.9 152 20.5 C 151.8 15.2 151.8 9.3 158.9 7.5 C 166.2 5.7 168.6 11.2 170.6 16.1 C 177.4 33.3 179.7 51.4 181.2 69.7 C 182.2 82.2 184.5 94.6 186.1 107.1 C 187.1 114.9 187.5 122.7 188.6 130.4 C 190.3 142.8 192.3 155.3 194.2 167.7 L 196.6 168.3 C 199.2 165.4 202.1 162.7 204.2 159.4 C 216.5 140.4 229.3 121.9 244.7 105.1 C 253.2 95.8 258.5 83.7 265.6 73.1 C 270.4 66 274.9 58.2 281.3 52.7 C 285.6 49 293.7 46.1 298.5 47.6 C 306 50 305 59.1 303 65.2 C 299.8 74.8 295.1 84.1 290.2 93 C 285.9 100.7 280.6 107.9 275.4 115.1 C 257 140.2 238.5 165.3 219.9 190.4 C 216.7 194.7 213.4 199.1 210 203.3 C 207 207 208.6 209.3 212.1 210.8 C 219.7 214.2 227.7 216.9 235.1 220.7 C 240.1 223.2 244.1 227.5 249 230.2 C 254.5 233.2 260.4 235.5 266.2 238 C 283.8 245.6 302.1 251.8 318.7 261.1 C 328.1 266.4 338.4 267.6 347.7 272.4 C 357.4 277.4 368.1 280.4 378 285 C 389.1 290.3 400.2 295.8 410.3 302.6 C 413.3 304.6 415.3 311.7 414.3 315.6 C 412.4 322.8 403.9 326.6 398 324.1 C 382.2 317.3 366.6 310 350.7 303.4 C 344.6 300.9 337.6 300.4 331.5 297.9 C 321.5 293.9 312 288.9 302.2 284.3 C 300.2 283.4 298.1 282.9 296.1 282 C 281.1 275.5 266 269.2 251.2 262.2 C 238.5 256.2 226.1 249.3 213.5 243 C 211.7 242.1 209.3 242.4 205.2 242 C 207 248.3 210.3 253.6 209.6 258.4 C 208.1 268 212.4 276.1 214.1 284.8 C 216.9 298.7 220 312.6 222.6 326.5 C 224.7 338 227 349.5 227.8 361 C 228.6 372.5 222.9 380.1 214.1 379.7 C 209.3 379.3 204.9 377.2 201.7 373.7 C 198.5 369.9 197 364.2 195.8 359.1 C 191.7 341.1 187.8 323.1 184.4 305 C 181.6 290.2 179.8 275.2 177.4 260.3 C 176.9 256.9 175.9 253.7 174.7 248.2 C 169.6 255 165.9 260.3 161.9 265.2 C 153.2 276.1 144.9 287.3 135.3 297.4 C 125 308.2 119 321.6 111.3 333.9 C 109.6 336.7 108.1 339.6 106.4 342.3 C 99.3 354.4 91 356.8 77.7 350.8 Z" fill="#65A6EB"/></g></svg>